<?xml version="1.0" encoding="UTF-8"?>
<svg width="1001px" height="1000px" viewBox="0 0 1001 1000" version="1.1" xmlns="http://www.w3.org/2000/svg" xmlns:xlink="http://www.w3.org/1999/xlink">
    <!-- Generator: Sketch 55.1 (78136) - https://sketchapp.com -->
    <title>Robot 54</title>
    <desc>Created with Sketch.</desc>
    <g id="上传2" stroke="none" stroke-width="1" fill="none" fill-rule="evenodd">
        <g id="2" transform="translate(-6408.000000, -4783.000000)">
            <g id="robot-54" transform="translate(6408.555556, 4783.000000)">
                <rect id="矩形备份-20" x="0" y="0" width="1000" height="1000"></rect>
                <g id="robot-15" transform="translate(113.000000, 164.000000)">
                    <circle id="椭圆形备份-11" fill="#FFD05B" cx="364.5" cy="364.5" r="364.5"></circle>
                    <g id="robot-14" transform="translate(102.000000, 178.000000)" fill-rule="nonzero">
                        <g id="57" transform="translate(0.000000, 0.000000)">
                            <rect id="矩形" fill="#CED5E0" x="139.557407" y="203.941646" width="20.5231481" height="51.9192103"></rect>
                            <rect id="矩形" fill="#CED5E0" x="81.7194444" y="203.941646" width="20.5231481" height="51.9192103"></rect>
                            <rect id="矩形" fill="#CED5E0" x="23.1351852" y="110.935291" width="192.544444" height="22.0376504"></rect>
                            <ellipse id="椭圆形" fill="#324A5E" cx="163.065741" cy="48.5575348" rx="14.9259259" ry="14.9407799"></ellipse>
                            <ellipse id="椭圆形" fill="#324A5E" cx="78.7342593" cy="48.5575348" rx="14.9259259" ry="14.9407799"></ellipse>
                            <path d="M97.0185185,86.2830042 L145.15463,86.2830042 C158.587963,78.0655752 167.543519,63.4983148 167.543519,46.6899373 C167.543519,20.9170919 146.647222,0.373519499 121.273148,0.373519499 C95.5259259,0.373519499 75.0027778,21.2906114 75.0027778,46.6899373 C74.6296296,63.4983148 83.5851852,78.0655752 97.0185185,86.2830042 Z" id="路径" fill="#E6E9EE"></path>
                            <path d="M148.139815,69.4746267 L93.6601852,69.4746267 C91.0481481,69.4746267 88.8092593,67.2335098 88.8092593,64.6188733 L88.8092593,34.3637939 C88.8092593,31.7491574 91.0481481,29.5080404 93.6601852,29.5080404 L147.766667,29.5080404 C150.378704,29.5080404 152.617593,31.7491574 152.617593,34.3637939 L152.617593,64.6188733 C152.990741,67.2335098 150.751852,69.4746267 148.139815,69.4746267 Z" id="路径" fill="#FFFFFF"></path>
                            <ellipse id="椭圆形" fill="#84DBFF" cx="137.691667" cy="49.6780933" rx="8.20925926" ry="8.21742897"></ellipse>
                            <ellipse id="椭圆形" fill="#84DBFF" cx="104.108333" cy="49.6780933" rx="8.20925926" ry="8.21742897"></ellipse>
                            <path d="M177.618519,210.664997 L64.1814815,210.664997 C57.0916667,210.664997 51.4944444,204.315166 52.6138889,197.218295 L65.6740741,107.573616 C66.4203704,101.597304 71.6444444,97.4885891 77.2416667,97.4885891 L164.558333,97.4885891 C170.528704,97.4885891 175.37963,101.970823 176.125926,107.573616 L189.186111,197.218295 C190.305556,204.315166 184.708333,210.664997 177.618519,210.664997 Z" id="路径" fill="#E6E9EE"></path>
                            <rect id="矩形" fill="#CED5E0" x="105.227778" y="86.2830042" width="31.3444444" height="10.8320655"></rect>
                            <path d="M161.2,158.372267 L80.6,158.372267 C76.8685185,158.372267 73.8833333,155.384111 73.8833333,151.648916 L73.8833333,113.549928 C73.8833333,109.814733 76.8685185,106.826577 80.6,106.826577 L161.2,106.826577 C164.931481,106.826577 167.916667,109.814733 167.916667,113.549928 L167.916667,151.275397 C167.916667,155.384111 164.931481,158.372267 161.2,158.372267 Z" id="路径" fill="#CED5E0"></path>
                            <path d="M181.723148,332.058834 L133.213889,332.058834 L133.213889,237.931921 L158.214815,237.931921 C171.275,237.931921 181.723148,248.390467 181.723148,261.463649 L181.723148,332.058834 Z" id="路径" fill="#E6E9EE"></path>
                            <path d="M198.887963,332.058834 L133.213889,332.058834 L133.213889,349.240731 L133.213889,366.422628 L210.455556,366.422628 L210.455556,349.240731 L210.455556,343.637939 C210.455556,337.288107 205.231481,332.058834 198.887963,332.058834 Z" id="路径" fill="#CED5E0"></path>
                            <path d="M60.0768519,332.058834 L108.586111,332.058834 L108.586111,237.931921 L83.5851852,237.931921 C70.525,237.931921 60.0768519,248.390467 60.0768519,261.463649 L60.0768519,332.058834 Z" id="路径" fill="#E6E9EE"></path>
                            <path d="M42.912037,332.058834 C36.5685185,332.058834 31.3444444,337.288107 31.3444444,343.637939 L31.3444444,349.240731 L31.3444444,366.422628 L108.586111,366.422628 L108.586111,349.240731 L108.586111,332.058834 L42.912037,332.058834 Z" id="路径" fill="#CED5E0"></path>
                            <path d="M224.635185,244.655272 C224.635185,244.655272 225.75463,263.704766 216.052778,275.65739 C213.440741,278.645546 208.589815,278.645546 206.724074,274.910351 L206.724074,274.910351 C205.60463,273.042754 205.60463,270.801637 206.724074,268.934039 L212.694444,258.101974 L206.724074,260.71661 C204.485185,261.837169 201.873148,260.71661 200.753704,258.475493 L200.753704,258.475493 C200.007407,256.981415 200.380556,255.487337 201.126852,253.993259 C204.485185,249.511025 213.440741,239.052479 224.635185,244.655272 Z" id="路径" fill="#324A5E"></path>
                            <rect id="矩形" fill="#CED5E0" x="204.485185" y="121.767357" width="25.3740741" height="103.464901"></rect>
                            <path d="M217.172222,146.046124 L217.172222,146.046124 C203.738889,146.046124 192.917593,135.214059 192.917593,121.767357 L192.917593,121.767357 C192.917593,108.320655 203.738889,97.4885891 217.172222,97.4885891 L217.172222,97.4885891 C230.605556,97.4885891 241.426852,108.320655 241.426852,121.767357 L241.426852,121.767357 C241.426852,135.214059 230.605556,146.046124 217.172222,146.046124 Z" id="路径" fill="#E6E9EE"></path>
                            <path d="M239.561111,227.099855 C239.561111,245.77583 229.486111,247.269908 217.172222,247.269908 C204.858333,247.269908 194.783333,245.77583 194.783333,227.099855 C194.783333,208.42388 204.858333,179.662879 217.172222,179.662879 C229.486111,179.662879 239.561111,208.42388 239.561111,227.099855 Z" id="路径" fill="#E6E9EE"></path>
                            <path d="M17.1648148,244.655272 C17.1648148,244.655272 16.0453704,263.704766 25.7472222,275.65739 C28.3592593,278.645546 33.2101852,278.645546 35.0759259,274.910351 L35.0759259,274.910351 C36.1953704,273.042754 36.1953704,270.801637 35.0759259,268.934039 L29.1055556,258.101974 L35.0759259,260.71661 C37.3148148,261.837169 39.9268519,260.71661 41.0462963,258.475493 L41.0462963,258.475493 C41.7925926,256.981415 41.4194444,255.487337 40.6731481,253.993259 C37.3148148,249.511025 28.3592593,239.052479 17.1648148,244.655272 Z" id="路径" fill="#324A5E"></path>
                            <rect id="矩形" fill="#CED5E0" x="11.9407407" y="121.767357" width="25.3740741" height="103.464901"></rect>
                            <path d="M24.6277778,146.046124 L24.6277778,146.046124 C38.0611111,146.046124 48.8824074,135.214059 48.8824074,121.767357 L48.8824074,121.767357 C48.8824074,108.320655 38.0611111,97.4885891 24.6277778,97.4885891 L24.6277778,97.4885891 C11.1944444,97.4885891 0.373148148,108.320655 0.373148148,121.767357 L0.373148148,121.767357 C0.373148148,135.214059 11.1944444,146.046124 24.6277778,146.046124 Z" id="路径" fill="#E6E9EE"></path>
                            <path d="M2.23888889,227.099855 C2.23888889,245.77583 12.3138889,247.269908 24.6277778,247.269908 C36.9416667,247.269908 47.0166667,245.77583 47.0166667,227.099855 C47.0166667,208.42388 36.9416667,179.662879 24.6277778,179.662879 C12.3138889,179.662879 2.23888889,208.42388 2.23888889,227.099855 Z" id="路径" fill="#E6E9EE"></path>
                        </g>
                        <g id="64" transform="translate(283.200000, 21.011236)">
                            <path d="M282.235821,227.987458 C282.235821,227.987458 288.20597,245.898093 282.235821,259.704207 C280.743284,263.435589 275.892537,264.181866 272.907463,261.569898 L272.907463,261.569898 C271.414925,260.077345 270.668657,257.838516 271.414925,255.972825 L274.4,244.032401 L269.549254,248.136922 C267.683582,249.629475 265.071642,249.256337 263.20597,247.390645 L263.20597,247.390645 C262.086567,246.271231 262.086567,244.40554 262.459701,243.286125 C264.698507,238.06219 270.295522,225.748628 282.235821,227.987458 Z" id="路径" fill="#54C0EB"></path>
                            <polygon id="矩形" fill="#54C0EB" transform="translate(253.283787, 132.118116) rotate(-39.933216) translate(-253.283787, -132.118116) " points="246.380837 107.677485 260.186989 107.677414 260.186738 156.558747 246.380585 156.558818"></polygon>
                            <path d="M298.280597,206.718579 C300.892537,232.838255 290.071642,233.584531 276.265672,235.077084 C262.832836,236.569637 251.638806,238.06219 249.026866,211.942514 C246.414925,185.822838 252.758209,142.165665 266.191045,140.673112 C279.997015,139.180559 295.668657,180.598903 298.280597,206.718579 Z" id="路径" fill="#FFFFFF"></path>
                            <path d="M240.444776,99.2547687 L209.474627,99.2547687 L209.474627,138.061144 L240.444776,138.061144 C243.429851,138.061144 246.041791,134.7029 246.041791,130.59838 L246.041791,107.090672 C246.041791,102.613013 243.802985,99.2547687 240.444776,99.2547687 Z" id="路径" fill="#84DBFF"></path>
                            <path d="M16.5641791,227.987458 C16.5641791,227.987458 10.5940299,245.898093 16.5641791,259.704207 C18.0567164,263.435589 22.9074627,264.181866 25.8925373,261.569898 L25.8925373,261.569898 C27.3850746,260.077345 28.1313433,257.838516 27.3850746,255.972825 L24.4,244.032401 L29.2507463,248.136922 C31.1164179,249.629475 33.7283582,249.256337 35.5940299,247.390645 L35.5940299,247.390645 C36.7134328,246.271231 36.7134328,244.40554 36.3402985,243.286125 C34.1014925,238.06219 28.5044776,225.748628 16.5641791,227.987458 Z" id="路径" fill="#54C0EB"></path>
                            <polygon id="矩形" fill="#54C0EB" transform="translate(45.586474, 132.129459) rotate(-140.066784) translate(-45.586474, -132.129459) " points="38.6832717 107.688757 52.4894246 107.688828 52.489676 156.570162 38.6835232 156.570091"></polygon>
                            <path d="M0.519402985,206.718579 C-2.09253731,232.838255 8.72835821,233.584531 22.5343284,235.077084 C35.9671642,236.569637 47.161194,238.06219 49.7731343,211.942514 C52.3850746,185.822838 46.041791,142.165665 32.6089552,140.673112 C18.8029851,139.180559 3.13134328,180.598903 0.519402985,206.718579 Z" id="路径" fill="#FFFFFF"></path>
                            <path d="M58.3552239,99.2547687 L89.3253731,99.2547687 L89.3253731,138.061144 L58.3552239,138.061144 C55.3701493,138.061144 52.758209,134.7029 52.758209,130.59838 L52.758209,107.090672 C52.758209,102.613013 54.9970149,99.2547687 58.3552239,99.2547687 Z" id="路径" fill="#84DBFF"></path>
                            <polygon id="路径" fill="#54C0EB" points="184.101493 338.809511 171.041791 335.824406 188.952239 258.584792 162.832836 175.001829 175.519403 171.270447 202.758209 258.211654"></polygon>
                            <ellipse id="椭圆形" fill="#E6E9EE" cx="195.668657" cy="258.584792" rx="16.4179104" ry="16.418082"></ellipse>
                            <path d="M163.579104,352.988764 L245.668657,352.988764 C245.668657,335.451267 231.489552,321.272015 213.952239,321.272015 L163.579104,321.272015 L163.579104,352.988764 Z" id="路径" fill="#E6E9EE"></path>
                            <polygon id="路径" fill="#54C0EB" points="114.698507 338.809511 127.758209 335.824406 109.847761 258.584792 135.967164 175.001829 123.280597 171.270447 96.041791 258.211654"></polygon>
                            <ellipse id="椭圆形" fill="#E6E9EE" cx="103.131343" cy="258.584792" rx="16.4179104" ry="16.418082"></ellipse>
                            <path d="M135.220896,352.988764 L53.1313433,352.988764 C53.1313433,335.451267 67.3104478,321.272015 84.8477612,321.272015 L135.220896,321.272015 L135.220896,352.988764 Z" id="路径" fill="#E6E9EE"></path>
                            <path d="M199.773134,68.2842958 L99.0268657,68.2842958 C95.2955224,68.2842958 92.3104478,65.29919 92.3104478,61.5678077 L92.3104478,7.08962634 C92.3104478,3.35824406 95.2955224,0.373138228 99.0268657,0.373138228 L200.146269,0.373138228 C203.877612,0.373138228 206.862687,3.35824406 206.862687,7.08962634 L206.862687,61.5678077 C206.489552,65.29919 203.504478,68.2842958 199.773134,68.2842958 Z" id="路径" fill="#FFFFFF"></path>
                            <ellipse id="椭圆形" fill="#54C0EB" cx="181.862687" cy="21.268879" rx="14.1791045" ry="14.1792527"></ellipse>
                            <ellipse id="椭圆形" fill="#84DBFF" cx="181.862687" cy="21.268879" rx="7.8358209" ry="7.8359028"></ellipse>
                            <ellipse id="椭圆形" fill="#54C0EB" cx="116.937313" cy="21.268879" rx="14.1791045" ry="14.1792527"></ellipse>
                            <ellipse id="椭圆形" fill="#84DBFF" cx="116.937313" cy="21.268879" rx="7.8358209" ry="7.8359028"></ellipse>
                            <rect id="矩形" fill="#54C0EB" x="136.340299" y="68.2842958" width="26.119403" height="18.6569114"></rect>
                            <path d="M210.967164,87.3143454 L87.8328358,87.3143454 C81.8626866,87.3143454 76.638806,92.1651424 76.638806,98.5084923 L76.638806,192.912464 C76.638806,198.882676 81.4895522,204.106611 87.8328358,204.106611 L210.967164,204.106611 C216.937313,204.106611 222.161194,199.255814 222.161194,192.912464 L222.161194,98.5084923 C222.161194,92.1651424 216.937313,87.3143454 210.967164,87.3143454 Z" id="路径" fill="#FFFFFF"></path>
                        </g>
                    </g>
                </g>
            </g>
        </g>
    </g>
</svg>